<svg width="154" height="154" viewBox="0 0 154 154" fill="none" xmlns="http://www.w3.org/2000/svg">
<path d="M78.9692 13.0656L80.1147 4.74406L80.8398 4.84388L83.7505 11.8583L83.3701 11.806L88.032 5.83389L88.7572 5.93371L87.6117 14.2552L86.7677 14.1391L87.7315 7.13709L87.9336 7.16491L83.6441 12.631L83.228 12.5738L80.5512 6.14871L80.7771 6.17981L79.8132 13.1818L78.9692 13.0656Z" fill="#666666"/>
<path d="M94.6517 15.6853L101.214 9.18607L102.034 9.49586L102.655 18.711L101.779 18.38L101.267 9.75784L101.604 9.88515L95.516 16.0121L94.6517 15.6853ZM96.8596 14.121L97.3611 13.5409L101.93 15.2681L101.922 16.0349L96.8596 14.121Z" fill="#666666"/>
<path d="M106.138 20.3436L110.453 13.1369L111.081 13.5129L112.305 22.7502L111.976 22.5529L115.724 16.2934L116.476 16.7434L112.16 23.9501L111.532 23.574L110.318 14.343L110.648 14.5403L106.899 20.7998L106.138 20.3436Z" fill="#666666"/>
<path d="M114.863 25.6859L123.275 21.8718L123.935 22.447L121.316 31.3039L120.61 30.6893L123.126 22.4265L123.398 22.6629L115.56 26.2926L114.863 25.6859ZM117.477 24.9862L118.149 24.6165L121.832 27.8235L121.559 28.5398L117.477 24.9862Z" fill="#666666"/>
<path d="M126.275 36.9584C125.875 36.4587 125.586 35.9315 125.409 35.3768C125.242 34.8234 125.184 34.2705 125.234 33.7183C125.289 33.1723 125.449 32.6494 125.715 32.1496C125.986 31.656 126.362 31.2168 126.843 30.8319C127.324 30.447 127.835 30.1764 128.376 30.0202C128.922 29.8701 129.47 29.8313 130.02 29.9037C130.57 29.976 131.093 30.1565 131.59 30.445C132.099 30.7348 132.553 31.1295 132.953 31.6292C133.353 32.1289 133.64 32.6473 133.814 33.1845C133.992 33.728 134.04 34.274 133.956 34.8225L133.171 34.7439C133.226 34.2491 133.18 33.7887 133.034 33.3627C132.888 32.9367 132.662 32.5332 132.357 32.1522C132.032 31.7462 131.664 31.4264 131.251 31.1928C130.85 30.9605 130.422 30.8163 129.968 30.7601C129.524 30.7052 129.079 30.7384 128.633 30.8597C128.198 30.9822 127.784 31.2009 127.391 31.5159C127.004 31.8258 126.699 32.1819 126.478 32.5842C126.262 32.9928 126.129 33.422 126.079 33.8718C126.041 34.3228 126.088 34.772 126.22 35.2193C126.364 35.6678 126.596 36.0919 126.916 36.4916C127.216 36.8664 127.554 37.1743 127.932 37.4154C128.314 37.6627 128.752 37.8194 129.245 37.8855L129.036 38.6989C128.511 38.6066 128.009 38.4086 127.531 38.1051C127.058 37.7966 126.64 37.4144 126.275 36.9584ZM128.588 37.9662L131.005 36.0318L131.537 36.697L129.036 38.6989L128.588 37.9662Z" fill="#666666"/>
<path d="M135.705 42.1122L137.799 46.0269L137.133 46.3836L135.038 42.4689L135.705 42.1122ZM132.332 44.0257L134.716 48.48L134.039 48.8423L131.236 43.6051L138.642 39.6417L141.36 44.7202L140.683 45.0826L138.384 40.787L132.332 44.0257Z" fill="#666666"/>
<path d="M142.925 59.0846L143.882 63.4203L143.144 63.5832L142.187 59.2476L142.925 59.0846ZM139.161 60.0137L140.25 64.947L139.5 65.1125L138.219 59.3121L146.422 57.5018L147.663 63.1264L146.913 63.2919L145.863 58.5344L139.161 60.0137Z" fill="#666666"/>
<path d="M140.492 73.201L148.73 69.1334L148.77 70.0926L141.014 73.8999L140.992 73.3723L149.04 76.5429L149.077 77.4421L140.529 74.0763L140.492 73.201Z" fill="#666666"/>
<path d="M145.062 83.0022L144.481 87.404L143.731 87.305L144.313 82.9032L145.062 83.0022ZM141.207 82.59L140.546 87.5985L139.784 87.498L140.562 81.6091L148.889 82.7087L148.135 88.4191L147.374 88.3186L148.012 83.4885L141.207 82.59Z" fill="#666666"/>
<path d="M138.704 92.7433L146.769 95.0891L145.891 98.108C145.693 98.7917 145.41 99.3469 145.044 99.7738C144.686 100.203 144.262 100.488 143.771 100.628C143.286 100.779 142.751 100.769 142.168 100.599C141.599 100.434 141.147 100.156 140.81 99.767C140.479 99.3874 140.273 98.9194 140.193 98.363C140.121 97.8088 140.185 97.1899 140.384 96.5062L141.124 93.9597L141.405 94.4539L138.456 93.596L138.704 92.7433ZM137.102 98.2511L140.632 97.0282L140.364 97.95L136.83 99.1845L137.102 98.2511ZM141.336 94.4338L141.85 94.1708L141.116 96.6943C140.882 97.5008 140.881 98.1629 141.113 98.6805C141.344 99.2058 141.778 99.5611 142.416 99.7465C143.061 99.9342 143.622 99.8681 144.098 99.5484C144.572 99.2364 144.926 98.6771 145.161 97.8705L145.895 95.347L146.187 95.8446L141.336 94.4338Z" fill="#666666"/>
<path d="M135.511 102.148L138.344 103.454L137.757 103.408L144.546 102.612L144.149 103.473L138.185 104.173L138.395 103.715L141.738 108.704L141.367 109.511L137.562 103.833L137.978 104.249L135.144 102.943L135.511 102.148Z" fill="#666666"/>
<path d="M126.69 116.777C127.095 116.302 127.561 115.911 128.087 115.603C128.614 115.306 129.1 115.143 129.546 115.113L129.841 115.822C129.429 115.86 128.987 116.003 128.512 116.25C128.039 116.509 127.623 116.848 127.265 117.268C126.922 117.669 126.693 118.037 126.577 118.369C126.462 118.713 126.441 119.015 126.513 119.276C126.579 119.544 126.716 119.765 126.923 119.942C127.172 120.155 127.435 120.253 127.712 120.237C127.983 120.227 128.261 120.143 128.543 119.984C128.832 119.831 129.129 119.643 129.435 119.42C129.741 119.198 130.05 118.978 130.362 118.76C130.68 118.548 131.004 118.378 131.334 118.249C131.659 118.127 131.988 118.081 132.319 118.112C132.652 118.154 132.988 118.32 133.329 118.611C133.645 118.881 133.864 119.21 133.986 119.598C134.108 119.997 134.1 120.437 133.962 120.919C133.83 121.406 133.533 121.92 133.071 122.462C132.764 122.821 132.409 123.133 132.004 123.397C131.605 123.667 131.209 123.854 130.814 123.959L130.471 123.271C130.887 123.153 131.27 122.976 131.62 122.738C131.965 122.506 132.26 122.248 132.504 121.962C132.831 121.579 133.049 121.218 133.159 120.88C133.268 120.542 133.287 120.237 133.214 119.965C133.143 119.704 132.997 119.48 132.778 119.293C132.529 119.08 132.268 118.979 131.997 118.989C131.72 119.005 131.44 119.092 131.158 119.251C130.87 119.415 130.573 119.609 130.267 119.831C129.962 120.054 129.652 120.269 129.339 120.475C129.021 120.687 128.7 120.855 128.374 120.977C128.05 121.11 127.725 121.158 127.399 121.122C127.067 121.091 126.734 120.933 126.399 120.647C126.089 120.382 125.873 120.05 125.751 119.651C125.634 119.258 125.645 118.814 125.782 118.321C125.92 117.839 126.222 117.325 126.69 116.777Z" fill="#666666"/>
<path d="M118.677 125.19L123.676 130.957L125.907 129.023L126.41 129.604L121.277 134.052L120.774 133.472L123.005 131.538L118.006 125.771L118.677 125.19Z" fill="#666666"/>
<path d="M115.793 127.809L117.143 136.946L116.409 137.423L108.615 132.466L109.4 131.957L116.651 136.65L116.349 136.846L115.017 128.312L115.793 127.809ZM115.746 130.515L115.916 131.263L111.819 133.921L111.206 133.461L115.746 130.515Z" fill="#666666"/>
<path d="M101.795 135.68C102.386 135.434 102.972 135.302 103.554 135.285C104.132 135.279 104.68 135.376 105.196 135.577C105.706 135.781 106.164 136.08 106.57 136.474C106.97 136.871 107.287 137.354 107.524 137.923C107.761 138.492 107.879 139.058 107.879 139.621C107.872 140.187 107.758 140.724 107.536 141.232C107.314 141.74 106.996 142.193 106.581 142.591C106.162 143 105.657 143.327 105.066 143.573C104.475 143.819 103.897 143.951 103.333 143.969C102.761 143.99 102.223 143.884 101.719 143.652L102.012 142.919C102.473 143.109 102.928 143.193 103.378 143.17C103.827 143.148 104.278 143.043 104.728 142.855C105.208 142.656 105.618 142.39 105.956 142.058C106.291 141.737 106.548 141.366 106.728 140.945C106.903 140.534 106.995 140.097 107.002 139.635C107.004 139.183 106.909 138.725 106.715 138.259C106.525 137.801 106.267 137.411 105.941 137.087C105.609 136.766 105.233 136.519 104.815 136.347C104.392 136.185 103.947 136.105 103.481 136.109C103.01 136.123 102.539 136.228 102.066 136.425C101.623 136.609 101.233 136.849 100.897 137.145C100.553 137.444 100.281 137.821 100.081 138.277L99.3576 137.85C99.5917 137.372 99.9209 136.944 100.345 136.569C100.772 136.2 101.256 135.904 101.795 135.68ZM100.186 137.623L101.375 140.481L100.588 140.808L99.3576 137.85L100.186 137.623Z" fill="#666666"/>
<path d="M94.2008 143.315L89.8574 144.236L89.7006 143.496L94.0441 142.575L94.2008 143.315ZM93.3031 139.543L88.3609 140.591L88.2016 139.84L94.0125 138.608L95.7546 146.825L90.1198 148.02L89.9606 147.268L94.7266 146.258L93.3031 139.543Z" fill="#666666"/>
<path d="M73.2862 140.639C73.917 140.679 74.4974 140.819 75.0274 141.061C75.549 141.309 75.9974 141.638 76.3728 142.046C76.7396 142.462 77.0189 142.932 77.2107 143.457C77.3939 143.989 77.4664 144.563 77.4281 145.178C77.3898 145.793 77.247 146.349 76.9996 146.846C76.7437 147.351 76.4082 147.783 75.9931 148.142C75.5695 148.509 75.0837 148.779 74.5358 148.953C73.9875 149.136 73.3939 149.207 72.7551 149.167C72.1243 149.128 71.5482 148.984 71.0266 148.735C70.5046 148.494 70.0599 148.17 69.6925 147.762C69.3172 147.354 69.0379 146.883 68.8546 146.351C68.6634 145.818 68.5869 145.244 68.6252 144.629C68.6635 144.015 68.8106 143.455 69.0665 142.95C69.3144 142.444 69.6499 142.012 70.073 141.654C70.4881 141.295 70.9698 141.024 71.5182 140.842C72.0661 140.668 72.6555 140.6 73.2862 140.639ZM73.237 141.43C72.734 141.399 72.2656 141.454 71.832 141.595C71.3899 141.744 71.0035 141.964 70.6727 142.256C70.3334 142.556 70.063 142.908 69.8615 143.312C69.6595 143.724 69.5428 144.182 69.5115 144.685C69.4801 145.188 69.5394 145.652 69.6892 146.078C69.8385 146.513 70.0631 146.895 70.3631 147.227C70.6546 147.565 71.0107 147.832 71.4315 148.026C71.8437 148.229 72.3013 148.345 72.8044 148.377C73.3074 148.408 73.7799 148.349 74.222 148.2C74.6637 148.059 75.0541 147.839 75.3934 147.54C75.7242 147.248 75.9946 146.896 76.2046 146.484C76.4061 146.08 76.5225 145.626 76.5538 145.123C76.5847 144.628 76.5254 144.164 76.3761 143.73C76.2188 143.295 75.9944 142.908 75.7029 142.569C75.4029 142.238 75.0428 141.971 74.6226 141.769C74.2019 141.574 73.74 141.461 73.237 141.43Z" fill="#666666"/>
<path d="M63.7678 143.889L59.4271 142.955L59.5887 142.204L63.9294 143.138L63.7678 143.889ZM64.585 139.634L65.4532 139.82L63.6866 148.033L58.0554 146.821L58.217 146.07L62.98 147.095L64.585 139.634Z" fill="#666666"/>
<path d="M52.6006 136.183L48.8712 143.71L46.0541 142.314C45.4161 141.998 44.9192 141.622 44.5635 141.187C44.2041 140.759 43.9985 140.291 43.9466 139.783C43.884 139.279 43.9876 138.755 44.2575 138.21C44.5204 137.679 44.8731 137.283 45.3158 137.02C45.7478 136.761 46.2447 136.641 46.8064 136.66C47.3682 136.68 47.9681 136.848 48.6061 137.164L50.9824 138.341L50.4411 138.542L51.805 135.789L52.6006 136.183ZM50.473 138.477L50.6361 139.04L48.2813 137.873C47.5286 137.5 46.8788 137.379 46.3319 137.51C45.7742 137.644 45.348 138.009 45.0532 138.604C44.7549 139.206 44.7211 139.77 44.952 140.295C45.1757 140.817 45.6639 141.264 46.4166 141.637L48.7713 142.803L48.23 143.004L50.473 138.477Z" fill="#666666"/>
<path d="M41.8067 130.326L36.9628 137.189L34.3942 135.376C33.8125 134.965 33.3794 134.518 33.0949 134.033C32.8057 133.555 32.6746 133.061 32.7015 132.551C32.7173 132.043 32.9005 131.541 33.2511 131.044C33.5925 130.56 34.0021 130.223 34.48 130.031C34.9467 129.842 35.4561 129.8 36.0082 129.906C36.5556 130.018 37.1202 130.279 37.7019 130.69L39.8685 132.219L39.3097 132.324L41.0813 129.814L41.8067 130.326ZM37.1205 127.019L37.1275 130.754L36.3432 130.201L36.3264 126.458L37.1205 127.019ZM39.3513 132.265L39.4326 132.837L37.2856 131.321C36.5993 130.837 35.9736 130.621 35.4084 130.672C34.8368 130.719 34.3595 131.014 33.9766 131.556C33.589 132.105 33.4689 132.657 33.6162 133.211C33.7569 133.761 34.1704 134.278 34.8567 134.762L37.0037 136.278L36.438 136.393L39.3513 132.265Z" fill="#666666"/>
<path d="M32.063 128.801L28.8459 125.741L29.3669 125.193L32.584 128.253L32.063 128.801ZM34.6648 125.926L31.0042 122.445L31.5335 121.888L35.8375 125.982L30.0482 132.068L25.8747 128.099L26.404 127.542L29.9341 130.9L34.6648 125.926Z" fill="#666666"/>
<path d="M25.643 114.845C26.0188 115.363 26.2821 115.903 26.4332 116.466C26.573 117.026 26.6049 117.581 26.5289 118.131C26.4482 118.673 26.2632 119.188 25.9737 119.675C25.6796 120.155 25.2832 120.576 24.7846 120.937C24.2859 121.299 23.7627 121.545 23.215 121.676C22.6625 121.799 22.1134 121.812 21.5677 121.714C21.022 121.616 20.5077 121.411 20.0246 121.099C19.5303 120.785 19.0953 120.369 18.7196 119.851C18.3438 119.333 18.0819 118.802 17.9338 118.257C17.781 117.706 17.7594 117.158 17.8689 116.614L18.6495 116.73C18.5713 117.221 18.5951 117.683 18.721 118.116C18.8469 118.548 19.0531 118.962 19.3396 119.357C19.6449 119.778 19.9979 120.115 20.3987 120.368C20.7884 120.619 21.209 120.783 21.6606 120.861C22.101 120.937 22.5469 120.925 22.9982 120.825C23.4382 120.723 23.8623 120.524 24.2703 120.228C24.6718 119.937 24.9925 119.596 25.2324 119.204C25.4676 118.806 25.6208 118.384 25.6919 117.937C25.7519 117.488 25.7263 117.038 25.6152 116.584C25.4928 116.13 25.2813 115.695 24.9807 115.281C24.6989 114.892 24.3753 114.568 24.0098 114.31C23.6396 114.045 23.2095 113.867 22.7197 113.778L22.9678 112.975C23.4876 113.092 23.9793 113.314 24.4429 113.64C24.9001 113.97 25.3001 114.372 25.643 114.845ZM23.3806 113.728L20.8744 115.546L20.3741 114.856L22.9678 112.975L23.3806 113.728Z" fill="#666666"/>
<path d="M20.993 107.962L13.4016 111.558L13.0883 110.897L17.2008 102.535L17.3652 102.882L10.7715 106.006L10.3965 105.214L17.9879 101.618L18.3012 102.28L14.1836 110.63L14.0192 110.283L20.6129 107.16L20.993 107.962Z" fill="#666666"/>
<path d="M16.7056 98.6741L7.59473 97.1586L7.36619 96.3129L14.4735 90.4144L14.7177 91.318L8.02712 96.7807L7.9332 96.4332L16.4646 97.7821L16.7056 98.6741ZM14.1449 97.7999L13.381 97.7329L12.1068 93.0181L12.733 92.5754L14.1449 97.7999Z" fill="#666666"/>
<path d="M13.7612 86.6555L5.3925 87.3805L5.32932 86.6512L12.0979 80.2471L12.131 80.6297L4.86222 81.2594L4.78662 80.3867L13.1553 79.6617L13.2184 80.3909L6.44888 86.7831L6.41574 86.4005L13.6845 85.7708L13.7612 86.6555Z" fill="#666666"/>
<path d="M13.5005 71.3714C13.4441 72.0009 13.2884 72.5733 13.0335 73.0886C12.7705 73.6032 12.4303 74.0386 12.0129 74.3948C11.5955 74.751 11.1178 75.0175 10.5799 75.1942C10.0427 75.363 9.46733 75.4199 8.85379 75.365C8.24024 75.31 7.68414 75.1518 7.18547 74.8903C6.68752 74.6208 6.26479 74.2737 5.91728 73.849C5.57048 73.4164 5.3174 72.9238 5.15803 72.3714C4.99069 71.8183 4.93521 71.227 4.99157 70.5975C5.04579 69.9919 5.20039 69.4315 5.45536 68.9162C5.70237 68.4001 6.04547 67.9771 6.48466 67.6469L6.99611 68.259C6.61484 68.5702 6.32995 68.9262 6.14146 69.327C5.945 69.7271 5.82536 70.1662 5.78255 70.6442C5.73761 71.1462 5.78352 71.6202 5.92029 72.0662C6.04909 72.5115 6.25859 72.9077 6.54878 73.255C6.83099 73.6015 7.17505 73.8853 7.58095 74.1064C7.9796 74.3188 8.42992 74.4475 8.93191 74.4924C9.4339 74.5374 9.9039 74.4911 10.3419 74.3536C10.7727 74.2075 11.1617 73.9893 11.5089 73.6991C11.8482 73.4082 12.1248 73.0555 12.3386 72.6409C12.5445 72.2256 12.6699 71.7669 12.7148 71.2649C12.7576 70.7869 12.7179 70.3335 12.5956 69.9049C12.4734 69.4763 12.2523 69.075 11.9324 68.701L12.5444 68.1895C12.918 68.5924 13.1844 69.0701 13.3438 69.6225C13.5032 70.1749 13.5554 70.7579 13.5005 71.3714Z" fill="#666666"/>
<path d="M14.8791 62.3001L11.8648 61.4947L12.4508 61.4401L5.89641 63.3778L6.14113 62.4619L11.9 60.7588L11.7699 61.2457L7.62804 56.8971L7.85727 56.0392L12.5716 60.9879L12.0909 60.6483L15.1052 61.4538L14.8791 62.3001Z" fill="#666666"/>
<path d="M20.808 46.5624L12.1942 44.4692L12.6814 43.6982L20.7832 45.6808L20.5396 46.0663L15.3161 39.5289L15.752 38.8391L23.8794 40.7811L23.6486 41.1463L18.3931 34.6597L18.8482 33.9394L24.4363 40.8208L23.9363 41.612L16.2179 39.7865L16.3461 39.5837L21.3016 45.7813L20.808 46.5624Z" fill="#666666"/>
<path d="M28.6246 35.4947L22.3468 29.9136L22.9368 29.2499L29.2146 34.831L28.6246 35.4947Z" fill="#666666"/>
<path d="M33.2509 30.6751L28.0287 25.1095L25.876 27.1293L25.3505 26.5693L30.3036 21.9219L30.8291 22.482L28.6763 24.5018L33.8985 30.0675L33.2509 30.6751Z" fill="#666666"/>
<path d="M37.2839 16.789L38.0012 16.2862L42.8225 23.1648L42.1051 23.6676L37.2839 16.789ZM37.8011 26.6844L37.0739 27.194L32.2526 20.3154L32.9798 19.8057L37.8011 26.6844ZM39.9492 20.4454L35.4978 23.5655L35.0501 22.9267L39.5015 19.8067L39.9492 20.4454Z" fill="#666666"/>
<path d="M55.1372 17.2703C54.1262 17.6267 53.2278 17.6167 52.4421 17.2405C51.6563 16.8642 51.0627 16.1065 50.6612 14.9671L49.0618 10.4287L49.8993 10.1336L51.4867 14.638C51.8165 15.5736 52.271 16.1896 52.8504 16.4858C53.4299 16.7821 54.1044 16.7946 54.874 16.5234C55.6511 16.2495 56.1725 15.8155 56.4382 15.2215C56.7038 14.6274 56.6718 13.8625 56.3421 12.9269L54.7546 8.42248L55.5695 8.1353L57.1689 12.6737C57.5704 13.813 57.5831 14.7756 57.2068 15.5613C56.8381 16.3444 56.1483 16.914 55.1372 17.2703Z" fill="#666666"/>
<path d="M65.2301 14.5141C64.6146 14.6167 64.0063 14.6167 63.4052 14.5141C62.8108 14.4023 62.3334 14.2142 61.973 13.9499L62.2038 13.218C62.5431 13.4534 62.9739 13.629 63.496 13.7447C64.0247 13.8513 64.5613 13.8592 65.1058 13.7684C65.6266 13.6816 66.0383 13.5481 66.3408 13.3679C66.6498 13.1786 66.8609 12.9609 66.974 12.715C67.095 12.4677 67.1332 12.2099 67.0885 11.9416C67.0345 11.6181 66.8964 11.3735 66.6742 11.2077C66.4598 11.0407 66.1935 10.9269 65.8752 10.8664C65.5556 10.798 65.2071 10.7507 64.8296 10.7244C64.4522 10.6981 64.0741 10.6678 63.6953 10.6336C63.3152 10.5915 62.9575 10.5133 62.6221 10.3989C62.2946 10.2831 62.0138 10.1069 61.7797 9.87016C61.5522 9.62421 61.4016 9.28029 61.3279 8.83838C61.2596 8.42804 61.3036 8.03546 61.4601 7.66063C61.6232 7.2766 61.9126 6.94451 62.3282 6.66438C62.7425 6.37635 63.3008 6.17382 64.0031 6.05677C64.4686 5.97918 64.9415 5.96932 65.4215 6.02719C65.9002 6.07717 66.3244 6.18896 66.6939 6.36257L66.5144 7.11026C66.1199 6.9327 65.7122 6.82223 65.2913 6.77882C64.8783 6.7341 64.4864 6.74265 64.1155 6.80446C63.6184 6.88731 63.2192 7.02277 62.918 7.21084C62.6168 7.39892 62.4064 7.62052 62.2867 7.87567C62.1736 8.12161 62.1407 8.38662 62.1881 8.6707C62.242 8.99424 62.3761 9.23952 62.5905 9.40656C62.8128 9.57227 63.0831 9.68538 63.4013 9.74588C63.7275 9.80507 64.0793 9.84781 64.4568 9.87412C64.8342 9.90043 65.2091 9.93528 65.5813 9.97869C65.9614 10.0208 66.3151 10.0997 66.6426 10.2154C66.9767 10.322 67.2568 10.4943 67.483 10.7323C67.7171 10.969 67.8703 11.3044 67.9427 11.7384C68.0098 12.1409 67.9617 12.5341 67.7987 12.9182C67.6343 13.2943 67.341 13.627 66.9188 13.9164C66.5032 14.1965 65.9403 14.3958 65.2301 14.5141Z" fill="#666666"/>
</svg>
